<svg width="176" height="86" viewBox="0 0 176 86" fill="none" xmlns="http://www.w3.org/2000/svg">
<g clip-path="url(#clip0_116_5944)">
<path d="M154.1 85.9001H166.8C171.7 85.9001 175.8 81.9048 175.8 76.9106V74.6132C175.8 69.7189 171.8 65.6237 166.8 65.6237H154.1C149.2 65.6237 145.1 69.619 145.1 74.6132V76.9106C145.1 81.9048 149.1 85.9001 154.1 85.9001Z" fill="white"/>
<path fill-rule="evenodd" clip-rule="evenodd" d="M153.2 0.499419C154.2 0.499419 155.1 0.998839 155.5 1.89779C155.7 2.29733 155.8 2.69686 155.8 3.19628H157.4C158.4 3.19628 159.3 3.6957 159.7 4.59466C160.2 5.49361 160.1 6.49245 159.6 7.29152L144.4 29.7654L142.6 38.8548C143.9 38.8548 144.9 39.7538 145.2 40.9524L145.3 41.4518H146.8C148.1 41.4518 149.1 42.3508 149.4 43.5494V43.7491L151.6 40.0534C152.1 39.2544 152.9 38.7549 153.9 38.7549H162.8C163.6 38.7549 164.3 39.0546 164.8 39.7538C165.2 40.2532 165.4 40.8525 165.4 41.4518H167C167.8 41.4518 168.5 41.7515 169 42.4506C169.5 43.0499 169.7 43.849 169.6 44.6481L164.3 71.9164C164.1 73.2149 163 74.0139 161.7 74.0139H159.6C159.8 74.2137 160 74.5134 160.2 74.813C160.6 75.712 160.5 76.7108 159.8 77.5099V77.6098L159.6 78.6086C159.5 79.108 159.3 79.6074 159 80.007C159.1 80.5064 159.1 81.0058 158.9 81.5052L158.6 82.7038C158.7 83.403 158.6 84.0023 158.2 84.6016C157.7 85.4007 156.9 85.8002 156 85.8002H153.8C153.6 85.8002 153.5 85.8002 153.3 85.8002C153.1 85.8002 153 85.8002 152.8 85.8002H150.6C150.5 85.8002 150.3 85.8002 150.2 85.8002C150.1 85.8002 149.9 85.8002 149.8 85.8002H147.6C147.5 85.8002 147.5 85.8002 147.4 85.8002C147.3 85.8002 147.2 85.8002 147.2 85.8002H145C144.9 85.8002 144.9 85.8002 144.8 85.8002C144.4 85.9001 144.1 85.9001 143.7 85.9001C143 85.9001 142.4 85.8002 141.8 85.5006C141.4 85.7004 141 85.8002 140.6 85.8002H138.4C138.1 85.8002 137.8 85.8002 137.5 85.7004C137.2 85.8002 136.9 85.8002 136.6 85.8002H134.4C134.3 85.8002 134.1 85.8002 134 85.8002C133.9 85.8002 133.7 85.8002 133.6 85.8002H131.4C131 85.8002 130.6 85.7003 130.3 85.6005H130.2C129.5 85.8002 128.8 85.9001 128.1 85.9001C127.4 85.9001 126.7 85.8002 126 85.6005C126 85.6005 125.9 85.6005 125.9 85.5006C125.6 85.6005 125.2 85.7004 124.8 85.7004H122.9C122.7 85.7004 122.6 85.7004 122.4 85.7004C122.2 85.7004 122.1 85.7004 121.9 85.7004H120.7C120.5 85.7004 120.4 85.7004 120.2 85.7004C120 85.7004 119.9 85.7004 119.7 85.7004H117.8C117.4 85.7004 117 85.6005 116.7 85.5006H116.6C115.9 85.7004 115.2 85.8002 114.5 85.8002C113.8 85.8002 113.1 85.7004 112.4 85.5006C112.4 85.5006 112.3 85.5006 112.3 85.4007C112 85.5006 111.6 85.6005 111.2 85.6005H109C108.9 85.6005 108.7 85.6005 108.6 85.6005C108.5 85.6005 108.3 85.6005 108.2 85.6005H106C105.9 85.6005 105.7 85.6005 105.6 85.6005C105.5 85.6005 105.3 85.6005 105.2 85.6005H103.2C102.9 85.6005 102.7 85.6005 102.4 85.5006C102.2 85.6005 101.9 85.6005 101.6 85.6005H99.5001C99.4001 85.6005 99.2001 85.6005 99.1001 85.6005C99.0001 85.6005 98.8001 85.6005 98.7001 85.6005H90.4001C89.9001 85.6005 89.4001 85.5006 89.0001 85.2009C88.6001 85.5006 88.1001 85.6005 87.6001 85.6005H85.6001C85.3001 85.6005 85.1001 85.6005 84.8001 85.5006C84.3001 85.9001 84.1001 85.9001 83.8001 85.9001H81.7001C81.6001 85.9001 81.4001 85.9001 81.3001 85.9001C81.2001 85.9001 81.0001 85.9001 80.9001 85.9001H78.7001C78.3001 85.9001 78.0001 85.8002 77.7001 85.7004H77.6001C76.9001 85.9001 76.1001 85.9001 75.4001 85.9001H72.8001C72.7001 85.9001 72.5001 85.9001 72.4001 85.9001C72.3001 85.9001 72.1001 85.9001 72.0001 85.9001H69.8001C69.7001 85.9001 69.5001 85.9001 69.4001 85.9001C69.3001 85.9001 69.1001 85.9001 69.0001 85.9001H66.8001C66.4001 85.9001 66.1001 85.8002 65.8001 85.7004H65.7001C64.9001 85.9001 64.1001 85.9001 63.4001 85.9001H60.8001C60.7001 85.9001 60.5001 85.9001 60.4001 85.9001C60.3001 85.9001 60.2001 85.9001 60.0001 85.9001H57.8001C57.4001 85.9001 57.1001 85.8002 56.8001 85.7004C56.7001 85.7004 56.7001 85.7004 56.6001 85.7004C55.9001 85.9001 55.1001 85.9001 54.4001 85.9001H54.0001C53.9001 85.9001 53.9001 85.9001 53.8001 85.9001C53.7001 85.9001 53.7001 85.9001 53.6001 85.9001H51.6001C51.3001 85.9001 51.1001 85.9001 50.8001 85.8002C50.6001 85.9001 50.3001 85.9001 50.1001 85.9001H48.0001C47.6001 85.9001 47.2001 85.8002 46.8001 85.6005C46.1001 85.8002 45.4001 85.9001 44.6001 85.9001C44.2001 85.9001 43.8001 85.9001 43.4001 85.9001H43.3001C42.7001 85.8002 42.1001 85.6005 41.6001 85.3008C41.3001 85.4007 41.1001 85.6005 40.8001 85.7004C40.1001 85.9001 39.4001 86 38.7001 86C38.0001 86 37.3001 85.9001 36.6001 85.7004C36.5001 85.7004 36.5001 85.7003 36.4001 85.6005C36.1001 85.8002 35.7001 85.8002 35.3001 85.8002H33.2001C33.1001 85.8002 32.9001 85.8002 32.8001 85.8002C32.7001 85.8002 32.5001 85.8002 32.4001 85.8002H31.0001C30.8001 85.8002 30.7001 85.8002 30.6001 85.8002C30.5001 85.8002 30.3001 85.8002 30.2001 85.8002H28.1001C27.3001 85.8002 26.5001 85.4007 26.0001 84.8014C25.6001 84.302 25.4001 83.7027 25.4001 83.1034H23.8001C23.0001 83.1034 22.2001 82.7038 21.7001 82.1045C21.2001 81.4053 21.0001 80.7062 21.2001 79.8072L23.4001 70.8177C23.5001 70.4181 23.7001 70.0186 24.0001 69.7189C23.8001 69.2195 23.7001 68.6202 23.8001 68.1208L29.2001 40.9524C29.3001 40.453 29.5001 39.9535 29.9001 39.6539C27.4001 40.6527 24.7001 41.0523 21.9001 41.0523C17.8001 41.0523 13.8001 40.2532 10.1001 38.4553C8.90008 37.856 7.80008 37.2567 6.80008 36.4576C6.50008 36.2578 6.20008 36.0581 5.90008 35.7584C4.70008 35.1591 3.60008 34.5598 2.60008 33.7607C2.10008 33.3612 1.60008 32.9617 1.10008 32.662C7.80821e-05 31.863 -0.299922 30.2648 0.500078 29.0662L5.90008 20.9756C6.20008 20.5761 6.50008 20.2764 6.90008 20.0767C5.90008 18.5784 5.30008 16.8804 5.30008 14.9826C5.00008 8.78978 10.4001 2.79675 16.2001 0.998839C20.6001 -0.399535 26.3001 -0.199768 30.8001 0.799071C32.7001 1.19861 34.8001 2.29733 36.6001 3.39605L36.8001 2.29733C37.0001 0.998839 38.1001 0.199768 39.4001 0.199768H49.7001C50.5001 0.199768 51.2001 0.499419 51.7001 1.19861C52.1001 1.69803 52.3001 2.29733 52.3001 2.89663H53.9001C54.7001 2.89663 55.4001 3.19628 55.9001 3.89547C56.0001 3.99535 56.1001 4.19512 56.2001 4.29501L56.6001 2.39721C56.8001 1.09872 57.9001 0.299652 59.2001 0.299652H69.5001C70.3001 0.299652 71.0001 0.599303 71.5001 1.29849C71.6001 1.39837 71.6001 1.49826 71.7001 1.49826C72.2001 0.799071 73.0001 0.299652 73.9001 0.299652H84.2001C85.0001 0.299652 85.7001 0.599303 86.2001 1.29849C86.3001 1.39837 86.3001 1.49826 86.4001 1.49826C86.9001 0.799071 87.7001 0.299652 88.6001 0.299652H97.0001C98.0001 0.299652 98.9001 0.799071 99.3001 1.69803L100 2.99652H101.2C102.2 2.99652 103.1 3.49594 103.5 4.39489L105.6 8.39024L106.8 2.39721C107 1.09872 108.1 0.299652 109.4 0.299652H118.6C119 0.299652 119.4 0.399535 119.8 0.599303C120 0.599303 120.2 0.499419 120.3 0.499419H130.6C131.8 0.499419 132.8 1.19861 133.1 2.39721L133.3 3.19628H134.8C136 3.19628 137 3.89547 137.3 5.09408L137.6 5.99303L140.5 1.69803C141 0.998839 141.8 0.499419 142.7 0.499419H153.2Z" fill="white"/>
<path fill-rule="evenodd" clip-rule="evenodd" d="M39.3001 2.89662L33.0001 35.6585H43.3001L45.6001 23.7723H55.1001L52.7001 35.5586H63.0001L69.4001 2.89662H59.2001L56.7001 15.5819H47.2001L49.7001 2.89662H39.3001V2.89662ZM67.6001 35.5586H77.8001L84.2001 2.89662H73.9001L67.6001 35.5586ZM88.6001 2.89662L82.2001 35.6585H91.6001L94.8001 19.0778L103.8 35.5586H112.5L118.8 2.89662H109.6L106.2 19.9768L97.1001 2.89662H88.6001ZM137.6 25.9698L153.1 3.09638H142.8L141.8 4.59464L134.4 15.482L130.7 3.09638H120.4L127.3 25.9698L125.4 35.5586H135.7L137.6 25.9698ZM21.7001 25.77C21.3001 27.9675 18.3001 27.8676 14.5001 26.5691C10.7001 25.2706 8.0001 22.4739 8.0001 22.4739L2.6001 30.5644C3.3001 31.0639 8.3001 35.8583 17.6001 35.7584C27.9001 35.6585 32.1001 29.6655 32.4001 23.6725C32.7001 17.6794 28.4001 16.5807 24.9001 15.3821C21.4001 14.1835 18.5001 13.784 18.7001 12.0859C18.9001 10.3879 21.0001 10.1881 24.3001 11.187C27.6001 12.1858 30.9001 14.3833 30.9001 14.3833L36.2001 6.29267C36.2001 6.29267 32.9001 3.89546 30.1001 3.29615C27.3001 2.69685 21.6001 2.09755 17.0001 3.49592C12.3001 4.99418 7.7001 9.88849 7.8001 14.8827C8.0001 19.8769 12.1001 21.2752 15.0001 22.2741C17.8001 23.2729 22.1001 23.5726 21.7001 25.77Z" fill="#FFD300"/>
<path fill-rule="evenodd" clip-rule="evenodd" d="M59.5002 68.7201H67.9002C69.7002 59.6307 71.5002 50.5412 73.2002 41.4518H64.7002C62.9002 50.5412 61.2002 59.6307 59.5002 68.7201ZM89.9002 60.6295L91.1002 54.3368H98.4002L96.3002 65.4239C96.3002 65.4239 91.5002 68.82 84.1002 68.82C76.7002 68.82 72.2002 63.626 72.8002 57.0337C73.4002 50.4413 77.4002 43.7491 86.3002 41.6516C90.8002 40.6527 94.3002 41.5517 96.8002 42.7503C99.3002 43.9489 100.6 45.3473 100.6 45.3473L94.6002 51.4402C94.6002 51.4402 91.8002 48.0441 87.8002 48.7433C83.8002 49.3426 81.9002 53.2381 81.6002 55.8351C81.4002 58.5319 83.1002 63.626 89.9002 60.6295ZM150.1 68.7201H157.5L162.8 41.4518H153.9L145.4 55.6353L142.6 41.4518H133.6L128.4 68.7201H135.8L138.7 53.6376L140.8 65.7236H146.4L153.1 53.8374L150.1 68.7201ZM114.2 41.9512C121.7 41.9512 127.8 48.0441 127.8 55.5354C127.8 63.0267 121.7 69.1196 114.2 69.1196C106.7 69.1196 100.6 63.0267 100.6 55.5354C100.6 48.0441 106.7 41.9512 114.2 41.9512ZM48.4002 68.7201H55.8002L61.1002 41.4518H52.2002L43.7002 55.6353L40.9002 41.4518H31.9002L26.7002 68.7201H34.1002L37.0002 53.6376L39.0002 65.8235H44.6002L51.3002 53.9373L48.4002 68.7201Z" fill="#040007"/>
<path fill-rule="evenodd" clip-rule="evenodd" d="M114.6 48.8432V48.9431C114.5 49.3426 114.4 49.6423 114.3 49.842L113.5 52.7387H111.6L113.8 49.842C113.9 49.6423 114.1 49.5424 114.2 49.3426C114.4 49.1428 114.5 49.043 114.6 48.8432ZM114.3 47.3449L110 52.8386L109.6 54.6365H113.1L112.6 56.8339H114.4L114.9 54.6365H116L116.4 52.8386H115.3L116.6 47.3449H114.3ZM119.7 50.0418L114.2 61.029H115.4L120.9 50.0418H119.7ZM119.8 55.4355L119.3 57.633H122.8L118 64.9245H120.3L126.1 55.7352L126.2 55.4355H119.8ZM109.7 50.0418C109.8 49.2427 109.6 48.5435 109.1 47.9442C108.6 47.4448 108 47.1452 107.1 47.1452C106.2 47.1452 105.4 47.4448 104.8 48.0441C104.2 48.6434 103.8 49.5424 103.6 50.6411H105.5C105.6 50.1417 105.7 49.842 105.9 49.5424C106.1 49.2427 106.4 49.1428 106.7 49.1428C107 49.1428 107.2 49.2427 107.3 49.4425C107.4 49.6423 107.5 49.842 107.5 50.1417C107.5 50.4413 107.4 50.6411 107.2 51.0406C107 51.3403 106.7 51.7398 106.2 52.3391L102.3 56.9338H108.3L108.8 54.8362H107.1C107 54.8362 106.9 54.8362 106.8 54.8362C106.6 54.8362 106.5 54.8362 106.3 54.8362L107.5 53.6376C108.2 52.9384 108.7 52.3391 109.1 51.7398C109.4 51.2404 109.6 50.6411 109.7 50.0418Z" fill="#FFD300"/>
<path d="M151.7 80.6063H149.5C149.4 80.4065 149.4 80.1069 149.5 79.7073L149.9 78.1092C150 77.6098 149.8 77.3101 149.4 77.3101L148.6 80.5064H146.4L147.2 77.3101C146.8 77.3101 146.5 77.6098 146.4 78.1092L146 79.7073C145.9 80.2067 145.7 80.5064 145.5 80.6063H143.3C143.5 80.4065 143.7 80.007 143.8 79.5076L144.1 78.2091C144.3 77.6098 144.7 77.2102 145.6 76.9106C145.8 76.8107 146.1 76.8107 146.4 76.7108C146.3 76.7108 146 76.6109 145.7 76.511C145.4 76.3113 145.2 76.2114 145.1 76.1115C144.9 75.9117 144.8 75.6121 144.9 75.2126L145.1 74.2137C145.2 73.7143 145.2 73.4146 145.1 73.115H147.3C147.4 73.3148 147.4 73.6144 147.3 74.0139L147 75.3124C146.9 75.8119 147 76.1115 147.4 76.1115L148.1 73.2149H150.3L149.6 76.1115C150.1 76.1115 150.4 75.8119 150.5 75.3124L150.8 74.0139C150.9 73.5145 151.1 73.2149 151.3 73.115H153.5C153.3 73.3148 153.1 73.7143 153 74.2137L152.8 75.2126C152.7 75.6121 152.5 75.9117 152.2 76.1115C152.1 76.2114 151.8 76.3113 151.4 76.511C151.1 76.6109 150.9 76.7108 150.6 76.7108C150.7 76.7108 150.9 76.8107 151.3 76.9106C152 77.1103 152.3 77.6098 152.1 78.2091L151.8 79.5076C151.6 80.007 151.6 80.3066 151.7 80.6063ZM141.5 77.1103C141.1 77.41 140.8 77.6098 140.7 77.8095C140.6 78.0093 140.5 78.2091 140.4 78.6086C140.3 79.0081 140.3 79.2079 140.3 79.3078C140.3 79.4077 140.4 79.5076 140.6 79.5076C140.7 79.5076 140.8 79.5076 140.9 79.4077C141 79.3078 141 79.108 141.1 78.7085L141.5 77.1103ZM141.1 76.1115H139L139.1 75.6121C139.2 75.0128 139.4 74.6132 139.6 74.3136C139.8 74.0139 140.1 73.7143 140.6 73.5145C141.1 73.3148 141.6 73.115 142.2 73.115C143 73.115 143.5 73.2149 143.8 73.5145C144.1 73.8142 144.3 74.1138 144.2 74.5134C144.2 74.9129 144 75.712 143.7 76.9106L142.8 80.6063H140.6L140.8 79.9071C140.6 80.2067 140.4 80.4065 140.1 80.5064C139.9 80.6063 139.6 80.7062 139.3 80.7062C138.9 80.7062 138.6 80.6063 138.3 80.4065C138 80.2067 138 79.7073 138.2 78.9083L138.4 78.3089C138.5 77.7096 138.7 77.41 138.9 77.2102C139.1 77.0105 139.6 76.8107 140.4 76.511C141.2 76.2114 141.7 76.0116 141.7 75.9117C141.8 75.8119 141.9 75.6121 141.9 75.3124C142 74.9129 142 74.7131 142 74.5134C142 74.4135 141.9 74.3136 141.8 74.3136C141.6 74.3136 141.5 74.3136 141.5 74.4135C141.4 74.5134 141.4 74.813 141.3 75.2126L141.1 76.1115ZM139.3 73.2149L138.9 74.813H137.6L136.1 80.6063H134L135.5 74.813H134.2L134.6 73.2149H139.3ZM132.2 80.6063H130L130.7 77.9094H129.9L129.2 80.6063H127L128.8 73.2149H131L130.3 75.9117H131.1L131.8 73.2149H134L132.2 80.6063ZM125.3 75.2126C125.4 74.813 125.4 74.6132 125.4 74.5134C125.4 74.4135 125.3 74.4135 125.2 74.4135C125.1 74.4135 125 74.4135 124.9 74.5134C124.8 74.6132 124.7 74.813 124.7 75.2126L123.9 78.5087C123.8 78.9083 123.8 79.108 123.8 79.2079C123.8 79.3078 123.9 79.4077 124 79.4077C124.1 79.4077 124.2 79.4077 124.3 79.3078C124.4 79.2079 124.4 79.0081 124.5 78.7085L125.3 75.2126ZM127.4 75.8119L126.9 77.6098C126.7 78.3089 126.6 78.8084 126.4 79.108C126.3 79.4077 126 79.7073 125.8 80.007C125.5 80.3066 125.2 80.5064 124.8 80.6063C124.4 80.7062 124 80.806 123.6 80.806C123.1 80.806 122.7 80.7062 122.4 80.6063C122.1 80.5064 121.9 80.3066 121.7 80.1069C121.6 79.9071 121.5 79.6074 121.5 79.3078C121.5 79.0081 121.6 78.5087 121.7 77.9094L122.2 76.0116C122.4 75.3124 122.6 74.813 122.8 74.4135C123 74.0139 123.4 73.7143 123.8 73.5145C124.2 73.3148 124.8 73.115 125.4 73.115C125.9 73.115 126.3 73.2149 126.6 73.3148C126.9 73.5145 127.2 73.6144 127.3 73.9141C127.4 74.1138 127.5 74.4135 127.5 74.6132C127.6 74.9129 127.5 75.3124 127.4 75.8119ZM120.3 80.6063H118.4L119.7 75.5122L117.5 80.6063H116.3L116.6 75.5122L115.3 80.6063H113.4L115.2 73.2149H118L117.7 77.3101L119.4 73.2149H122.2L120.3 80.6063ZM111.7 75.2126C111.8 74.813 111.8 74.6132 111.8 74.5134C111.8 74.4135 111.7 74.4135 111.6 74.4135C111.5 74.4135 111.4 74.4135 111.3 74.5134C111.2 74.6132 111.1 74.813 111.1 75.2126L110.3 78.5087C110.2 78.9083 110.2 79.108 110.2 79.2079C110.2 79.3078 110.3 79.4077 110.4 79.4077C110.5 79.4077 110.6 79.4077 110.7 79.3078C110.8 79.2079 110.8 79.0081 110.9 78.7085L111.7 75.2126ZM113.8 75.8119L113.3 77.6098C113.1 78.3089 113 78.8084 112.8 79.108C112.7 79.4077 112.4 79.7073 112.2 80.007C112 80.3066 111.6 80.5064 111.2 80.6063C110.8 80.7062 110.4 80.806 110 80.806C109.5 80.806 109.1 80.7062 108.8 80.6063C108.5 80.5064 108.3 80.3066 108.1 80.1069C108 79.9071 107.9 79.6074 107.9 79.3078C107.9 79.0081 108 78.5087 108.1 77.9094L108.6 76.0116C108.8 75.3124 109 74.813 109.2 74.4135C109.4 74.0139 109.8 73.7143 110.2 73.5145C110.6 73.3148 111.2 73.115 111.8 73.115C112.3 73.115 112.7 73.2149 113 73.3148C113.3 73.5145 113.6 73.6144 113.7 73.9141C113.8 74.1138 113.9 74.4135 113.9 74.6132C114 74.9129 113.9 75.3124 113.8 75.8119ZM106.7 80.6063H104.5L105.2 77.9094H104.4L103.7 80.6063H101.5L103.3 73.2149H105.5L104.8 75.9117H105.6L106.3 73.2149H108.5L106.7 80.6063ZM100.6 80.6063H98.6001L99.6001 76.6109L97.0001 80.6063H95.0001L96.8001 73.2149H98.8001L97.8001 77.2102L100.3 73.2149H102.4L100.6 80.6063ZM91.6001 79.0081H92.4001L93.9001 73.2149H96.1001L94.3001 80.6063H86.0001L87.8001 73.2149H90.0001L88.5001 79.0081H89.3001L90.8001 73.2149H93.0001L91.6001 79.0081ZM83.3001 71.0174H84.2001C84.1001 71.5168 83.8001 71.9164 83.5001 72.216C83.1001 72.5157 82.7001 72.7155 82.2001 72.7155C81.7001 72.7155 81.4001 72.5157 81.2001 72.216C81.0001 71.9164 81.0001 71.5168 81.1001 71.0174H82.0001C81.9001 71.5168 82.1001 71.8165 82.4001 71.8165C82.9001 71.8165 83.2001 71.5168 83.3001 71.0174ZM83.1001 80.6063H81.1001L82.1001 76.6109L79.5001 80.6063H77.4001L79.2001 73.2149H81.2001L80.2001 77.2102L82.7001 73.2149H84.8001L83.1001 80.6063ZM76.7001 80.6063H74.5001L76.3001 73.2149H78.5001L76.7001 80.6063ZM72.2001 78.2091L72.3001 77.9094C72.4001 77.5099 72.4001 77.3101 72.4001 77.2102C72.3001 77.1103 72.1001 77.1103 71.8001 77.1103L71.3001 79.108C71.6001 79.108 71.8001 79.108 71.9001 79.0081C72.0001 78.8084 72.1001 78.6086 72.2001 78.2091ZM74.3001 78.5087C74.1001 79.2079 73.9001 79.7073 73.7001 80.007C73.5001 80.3066 73.2001 80.5064 72.8001 80.5064C72.4001 80.6063 71.9001 80.6063 71.1001 80.6063H68.5001L70.3001 73.2149H72.5001L71.9001 75.712H72.3001C73.0001 75.712 73.5001 75.712 73.9001 75.8119C74.2001 75.9117 74.4001 76.1115 74.5001 76.4112C74.6001 76.7108 74.6001 77.1103 74.4001 77.8095L74.3001 78.5087ZM67.8001 80.6063H65.6001L66.3001 77.9094H65.5001L64.8001 80.6063H62.6001L64.4001 73.2149H66.6001L65.9001 75.9117H66.7001L67.4001 73.2149H69.6001L67.8001 80.6063ZM60.1001 78.2091L60.2001 77.9094C60.3001 77.5099 60.3001 77.3101 60.3001 77.2102C60.2001 77.1103 60.0001 77.1103 59.7001 77.1103L59.2001 79.108C59.5001 79.108 59.7001 79.108 59.8001 79.0081C59.9001 78.8084 60.0001 78.6086 60.1001 78.2091ZM62.3001 78.5087C62.1001 79.2079 61.9001 79.7073 61.7001 80.007C61.5001 80.3066 61.2001 80.5064 60.8001 80.5064C60.4001 80.6063 59.9001 80.6063 59.1001 80.6063H56.5001L58.3001 73.2149H60.5001L60.0001 75.712H60.4001C61.1001 75.712 61.6001 75.712 62.0001 75.8119C62.3001 75.9117 62.5001 76.1115 62.6001 76.4112C62.7001 76.7108 62.7001 77.1103 62.5001 77.8095L62.3001 78.5087ZM53.6001 80.6063L55.1001 74.813H54.3001L53.4001 78.5087C53.2001 79.2079 53.0001 79.7073 52.8001 80.007C52.6001 80.3066 52.3001 80.5064 51.9001 80.5064C51.5001 80.6063 51.0001 80.6063 50.2001 80.6063H49.8001L50.1001 79.4077C50.4001 79.4077 50.6001 79.4077 50.7001 79.3078C50.8001 79.2079 50.9001 79.0081 51.0001 78.6086L52.3001 73.3148H57.6001L55.8001 80.7062H53.6001V80.6063ZM49.4001 80.6063H47.4001L48.4001 76.6109L45.8001 80.6063H43.8001L45.6001 73.2149H47.6001L46.6001 77.2102L49.1001 73.2149H51.2001L49.4001 80.6063ZM43.1001 73.2149C44.2001 73.2149 44.6001 73.6144 44.5001 74.5134C44.4001 74.9129 44.3001 75.4123 44.2001 75.9117L43.8001 77.7096C43.6001 78.5087 43.4001 79.108 43.2001 79.4077C42.7001 80.3066 41.7001 80.7062 40.5001 80.7062C40.0001 80.7062 39.7001 80.7062 39.6001 80.7062C39.3001 80.7062 39.1001 80.6063 38.9001 80.4065C38.6001 80.2067 38.5001 79.8072 38.4001 79.4077C38.4001 79.108 38.5001 78.6086 38.6001 77.9094L39.7001 73.6144C39.9001 73.0151 40.2001 72.5157 40.7001 72.1161C41.2001 71.7166 41.8001 71.5168 42.4001 71.5168C42.7001 71.5168 43.1001 71.5168 43.6001 71.6167C44.1001 71.6167 44.4001 71.7166 44.6001 71.7166C44.8001 71.7166 45.0001 71.7166 45.1001 71.6167L44.8001 72.8153C44.6001 72.9152 44.5001 72.9152 44.3001 72.9152C44.1001 72.9152 43.8001 72.9152 43.5001 72.9152C43.1001 72.9152 42.9001 72.9152 42.7001 72.9152C42.4001 72.9152 42.2001 73.0151 42.0001 73.3148C42.0001 73.4146 41.9001 73.6144 41.8001 74.0139C42.2001 73.4146 42.7001 73.2149 43.1001 73.2149ZM41.1001 79.108L42.0001 75.3124C42.1001 75.0128 42.1001 74.813 42.1001 74.7131C42.1001 74.5134 42.0001 74.4135 41.9001 74.4135C41.7001 74.4135 41.6001 74.5134 41.5001 74.7131C41.5001 74.813 41.4001 75.0128 41.3001 75.3124L40.4001 78.8084C40.3001 79.2079 40.4001 79.4077 40.6001 79.4077C40.9001 79.5076 41.1001 79.3078 41.1001 79.108ZM36.2001 75.2126C36.3001 74.813 36.3001 74.6132 36.3001 74.5134C36.3001 74.4135 36.2001 74.4135 36.1001 74.4135C36.0001 74.4135 35.9001 74.4135 35.8001 74.5134C35.7001 74.6132 35.6001 74.813 35.6001 75.2126L34.8001 78.5087C34.7001 78.9083 34.7001 79.108 34.7001 79.2079C34.7001 79.3078 34.8001 79.4077 34.9001 79.4077C35.0001 79.4077 35.1001 79.4077 35.2001 79.3078C35.3001 79.2079 35.3001 79.0081 35.4001 78.7085L36.2001 75.2126ZM38.3001 75.8119L37.9001 77.6098C37.7001 78.3089 37.6001 78.8084 37.4001 79.108C37.3001 79.4077 37.0001 79.7073 36.8001 80.007C36.6001 80.3066 36.2001 80.5064 35.8001 80.6063C35.4001 80.7062 35.0001 80.806 34.6001 80.806C34.1001 80.806 33.7001 80.7062 33.4001 80.6063C33.1001 80.5064 32.9001 80.3066 32.7001 80.1069C32.6001 79.9071 32.5001 79.6074 32.5001 79.3078C32.5001 79.0081 32.6001 78.5087 32.7001 77.9094L33.2001 76.0116C33.4001 75.3124 33.6001 74.813 33.8001 74.4135C34.0001 74.0139 34.4001 73.7143 34.8001 73.5145C35.2001 73.3148 35.8001 73.115 36.4001 73.115C36.9001 73.115 37.3001 73.2149 37.6001 73.3148C37.9001 73.5145 38.2001 73.6144 38.3001 73.9141C38.4001 74.1138 38.5001 74.4135 38.5001 74.6132C38.5001 74.9129 38.4001 75.3124 38.3001 75.8119ZM33.4001 71.6167L31.2001 80.6063H29.1001L30.6001 74.5134L28.3001 80.6063H26.9001L27.5001 74.6132L26.0001 80.6063H23.9001L26.1001 71.6167H29.1001C29.1001 72.1161 29.0001 72.8153 28.9001 73.5145L28.7001 75.8119L30.3001 71.6167H33.4001Z" fill="#040007"/>
<path d="M163.5 73.2149L161.6 80.6063H159.9L157.7 76.6109L156.7 80.6063H154.7L156.6 73.2149H158.3L160.5 77.2102L161.5 73.2149H163.5ZM163.4 77.3101H167.1L166.8 78.5087H163L163.4 77.3101ZM167.1 73.3148C167.4 73.4146 167.6 73.6144 167.7 73.9141C167.8 74.2137 167.9 74.4135 167.9 74.7131C167.9 75.1127 167.8 75.4123 167.5 75.712C167.3 76.0116 167 76.2114 166.6 76.4112C166.2 76.6109 165.9 76.6109 165.4 76.6109C165 76.6109 164.7 76.511 164.4 76.4112C164.1 76.3113 163.9 76.1115 163.8 75.8119C163.7 75.6121 163.6 75.3124 163.6 75.0128C163.6 74.6132 163.7 74.3136 164 74.0139C164.2 73.7143 164.5 73.5145 164.9 73.3148C165.3 73.115 165.6 73.115 166.1 73.115C166.5 73.115 166.8 73.2149 167.1 73.3148ZM166.3 75.4123C166.5 75.2126 166.6 75.0128 166.6 74.813C166.6 74.6133 166.6 74.5134 166.5 74.3136C166.4 74.2137 166.2 74.1138 166.1 74.1138C165.9 74.1138 165.7 74.2137 165.5 74.3136C165.3 74.5134 165.3 74.7131 165.2 74.9129C165.2 75.1127 165.2 75.2126 165.3 75.3124C165.4 75.4123 165.6 75.5122 165.7 75.5122C165.9 75.6121 166.1 75.6121 166.3 75.4123Z" fill="black"/>
<path d="M172.4 73.2149L170.6 80.6063H168.5L169.9 74.813H168.6L169 73.2149H172.4Z" fill="black"/>
<rect x="135" y="85.9001" width="12" height="15.9814" fill="#D9D9D9"/>
</g>
<defs>
<clipPath id="clip0_116_5944">
<rect width="175.7" height="86" fill="white"/>
</clipPath>
</defs>
</svg>
